<svg xmlns="http://www.w3.org/2000/svg" xmlns:xlink="http://www.w3.org/1999/xlink" width="400" zoomAndPan="magnify" viewBox="0 0 300 30.000001" height="40" preserveAspectRatio="xMidYMid meet" version="1.0"><defs><g/></defs><g fill="#000000" fill-opacity="1"><g transform="translate(8.612755, 28.321793)"><g><path d="M 13.085938 -28.007812 L 1.960938 -28.007812 L 1.960938 0 L 13.085938 0 C 22.328125 0 26.96875 -6.960938 26.96875 -13.964844 C 26.96875 -20.964844 22.328125 -28.007812 13.085938 -28.007812 Z M 13.085938 -6.523438 L 8.761719 -6.523438 L 8.761719 -21.527344 L 13.085938 -21.527344 C 17.804688 -21.527344 20.207031 -17.644531 20.207031 -13.964844 C 20.207031 -10.28125 17.804688 -6.523438 13.085938 -6.523438 Z M 13.085938 -6.523438 "/></g></g></g><g fill="#000000" fill-opacity="1"><g transform="translate(43.502713, 28.321793)"><g><path d="M 17.84375 0 L 17.84375 -6.121094 L 13.203125 -6.121094 L 13.203125 -21.925781 L 17.84375 -21.925781 L 17.84375 -28.167969 L 1.71875 -28.167969 L 1.71875 -21.925781 L 6.363281 -21.925781 L 6.363281 -6.121094 L 1.71875 -6.121094 L 1.71875 0 Z M 17.84375 0 "/></g></g></g><g fill="#000000" fill-opacity="1"><g transform="translate(69.590421, 28.321793)"><g><path d="M 15.605469 -21.726562 C 18.164062 -21.726562 21.40625 -20.605469 22.40625 -16.605469 L 29.609375 -16.605469 C 28.449219 -25.40625 21.046875 -28.410156 15.605469 -28.410156 C 7.683594 -28.410156 1.441406 -22.367188 1.441406 -13.964844 C 1.441406 -5.601562 7.523438 0.441406 15.605469 0.441406 C 20.847656 0.441406 26.726562 -3.121094 28.6875 -8.484375 C 29.128906 -9.523438 29.6875 -11.5625 29.6875 -14.804688 L 12.5625 -14.804688 L 12.5625 -8.683594 L 21.125 -8.683594 C 19.644531 -6.683594 17.484375 -6.082031 15.605469 -6.082031 C 11.484375 -6.082031 8.363281 -9.203125 8.363281 -13.964844 C 8.363281 -18.484375 11.484375 -21.726562 15.605469 -21.726562 Z M 15.605469 -21.726562 "/></g></g></g><g fill="#000000" fill-opacity="1"><g transform="translate(107.601176, 28.321793)"><g><path d="M 17.84375 0 L 17.84375 -6.121094 L 13.203125 -6.121094 L 13.203125 -21.925781 L 17.84375 -21.925781 L 17.84375 -28.167969 L 1.71875 -28.167969 L 1.71875 -21.925781 L 6.363281 -21.925781 L 6.363281 -6.121094 L 1.71875 -6.121094 L 1.71875 0 Z M 17.84375 0 "/></g></g></g><g fill="#000000" fill-opacity="1"><g transform="translate(133.68888, 28.321793)"><g><path d="M 13.324219 -28.25 L 2 -28.25 L 2 0 L 8.84375 0 L 8.84375 -8.324219 L 13.324219 -8.324219 C 19.886719 -8.324219 23.167969 -13.324219 23.167969 -18.246094 C 23.167969 -23.167969 19.886719 -28.25 13.324219 -28.25 Z M 13.324219 -14.765625 L 8.84375 -14.765625 L 8.84375 -21.605469 L 13.324219 -21.605469 C 15.445312 -21.605469 16.484375 -19.804688 16.484375 -18.125 C 16.484375 -16.484375 15.445312 -14.765625 13.324219 -14.765625 Z M 13.324219 -14.765625 "/></g></g></g><g fill="#000000" fill-opacity="1"><g transform="translate(164.817879, 28.321793)"><g><path d="M 11.523438 -28.328125 L 0.320312 0 L 7.640625 0 L 9.203125 -4.121094 L 18.765625 -4.121094 L 20.328125 0 L 28.046875 0 L 16.40625 -28.328125 Z M 14.003906 -17.046875 L 16.164062 -10.964844 L 16.324219 -10.484375 L 11.683594 -10.484375 L 11.921875 -11.125 Z M 14.003906 -17.046875 "/></g></g></g><g fill="#000000" fill-opacity="1"><g transform="translate(199.547787, 28.321793)"><g><path d="M 16.964844 -28.007812 L 16.964844 -14.003906 L 7.28125 -28.007812 L 2 -28.007812 L 2 0 L 8.800781 0 L 8.800781 -13.644531 L 18.367188 0 L 23.726562 0 L 23.726562 -28.007812 Z M 16.964844 -28.007812 "/></g></g></g><g fill="#000000" fill-opacity="1"><g transform="translate(232.117153, 28.321793)"><g><path d="M 23.246094 -28.328125 L 1.320312 -28.328125 L 1.320312 -21.925781 L 8.882812 -21.925781 L 8.882812 0 L 15.726562 0 L 15.726562 -21.925781 L 23.246094 -21.925781 Z M 23.246094 -28.328125 "/></g></g></g><g fill="#000000" fill-opacity="1"><g transform="translate(263.926319, 28.321793)"><g><path d="M 15.886719 -19.164062 L 22.765625 -19.164062 C 22.765625 -25.609375 17.367188 -28.410156 12.363281 -28.410156 C 6.402344 -28.410156 1.359375 -24.726562 1.679688 -18.566406 L 1.679688 -18.605469 C 2.199219 -12.164062 7.5625 -11.164062 12.082031 -10.722656 C 13.125 -10.601562 16.324219 -10.523438 16.324219 -8.523438 C 16.324219 -6.921875 14.523438 -6.28125 12.285156 -6.28125 C 10.722656 -6.28125 8.402344 -6.800781 8.402344 -9.5625 L 1.480469 -9.5625 C 1.480469 -2.441406 7.683594 0.359375 12.242188 0.359375 C 17.566406 0.359375 23.246094 -3 23.246094 -8.84375 C 23.246094 -9.441406 23.167969 -10.164062 23.046875 -10.804688 C 21.847656 -15.84375 16.84375 -16.886719 12.882812 -17.40625 C 11.964844 -17.484375 8.644531 -17.527344 8.644531 -19.605469 C 8.644531 -21.125 10.125 -22.046875 12.242188 -22.046875 C 14.363281 -22.046875 15.886719 -21.046875 15.886719 -19.164062 Z M 15.886719 -19.164062 "/></g></g></g></svg>